<mxfile host="app.diagrams.net" modified="2023-10-09T12:55:25.682Z" agent="Mozilla/5.0 (X11; Linux x86_64) AppleWebKit/537.36 (KHTML, like Gecko) Chrome/117.0.0.0 Safari/537.36" etag="U1wPzp94TEUs5Cf9JK6c" version="22.0.4" type="github">
  <diagram name="第 1 页" id="LOj1FHsmd5oFPnjuv59U">
    <mxGraphModel dx="1670" dy="943" grid="1" gridSize="10" guides="1" tooltips="1" connect="1" arrows="1" fold="1" page="1" pageScale="1" pageWidth="827" pageHeight="1169" math="0" shadow="0">
      <root>
        <mxCell id="0" />
        <mxCell id="1" parent="0" />
        <mxCell id="_OJ8Bna1-JQcYfiO_iEy-4" value="" style="rounded=0;whiteSpace=wrap;html=1;" vertex="1" parent="1">
          <mxGeometry x="280" y="290" width="50" height="50" as="geometry" />
        </mxCell>
        <mxCell id="_OJ8Bna1-JQcYfiO_iEy-5" value="" style="rounded=0;whiteSpace=wrap;html=1;" vertex="1" parent="1">
          <mxGeometry x="270" y="300" width="50" height="50" as="geometry" />
        </mxCell>
        <mxCell id="_OJ8Bna1-JQcYfiO_iEy-6" value="" style="rounded=0;whiteSpace=wrap;html=1;" vertex="1" parent="1">
          <mxGeometry x="260" y="310" width="50" height="50" as="geometry" />
        </mxCell>
        <mxCell id="_OJ8Bna1-JQcYfiO_iEy-7" value="" style="rounded=0;whiteSpace=wrap;html=1;" vertex="1" parent="1">
          <mxGeometry x="250" y="320" width="50" height="50" as="geometry" />
        </mxCell>
        <mxCell id="_OJ8Bna1-JQcYfiO_iEy-8" value="" style="rounded=0;whiteSpace=wrap;html=1;" vertex="1" parent="1">
          <mxGeometry x="240" y="330" width="50" height="50" as="geometry" />
        </mxCell>
        <mxCell id="_OJ8Bna1-JQcYfiO_iEy-9" value="" style="rounded=0;whiteSpace=wrap;html=1;" vertex="1" parent="1">
          <mxGeometry x="230" y="340" width="50" height="50" as="geometry" />
        </mxCell>
      </root>
    </mxGraphModel>
  </diagram>
</mxfile>
